<?xml version="1.0" encoding="UTF-8" standalone="no"?>
<!-- Created with Inkscape (http://www.inkscape.org/) -->

<svg
   xmlns:dc="http://purl.org/dc/elements/1.1/"
   xmlns:cc="http://creativecommons.org/ns#"
   xmlns:rdf="http://www.w3.org/1999/02/22-rdf-syntax-ns#"
   xmlns:svg="http://www.w3.org/2000/svg"
   xmlns="http://www.w3.org/2000/svg"
   xmlns:sodipodi="http://sodipodi.sourceforge.net/DTD/sodipodi-0.dtd"
   xmlns:inkscape="http://www.inkscape.org/namespaces/inkscape"
   width="210mm"
   height="297mm"
   viewBox="0 0 744.09448819 1052.3622047"
   id="svg2"
   version="1.1"
   inkscape:version="0.91 r13725"
   sodipodi:docname="china.svg">
  <defs
     id="defs4" />
  <sodipodi:namedview
     id="base"
     pagecolor="#ffffff"
     bordercolor="#666666"
     borderopacity="1.0"
     inkscape:pageopacity="0.0"
     inkscape:pageshadow="2"
     inkscape:zoom="1.979899"
     inkscape:cx="443.77181"
     inkscape:cy="607.50034"
     inkscape:document-units="px"
     inkscape:current-layer="layer1"
     showgrid="false"
     inkscape:window-width="1280"
     inkscape:window-height="961"
     inkscape:window-x="1912"
     inkscape:window-y="-8"
     inkscape:window-maximized="1" />
  <metadata
     id="metadata7">
    <rdf:RDF>
      <cc:Work
         rdf:about="">
        <dc:format>image/svg+xml</dc:format>
        <dc:type
           rdf:resource="http://purl.org/dc/dcmitype/StillImage" />
        <dc:title></dc:title>
      </cc:Work>
    </rdf:RDF>
  </metadata>
  <g
     inkscape:label="Layer 1"
     inkscape:groupmode="layer"
     id="layer1">
    <ellipse
       style="fill:#ffffff;fill-opacity:0;stroke:#000000;stroke-opacity:1"
       id="path7488"
       cx="334.3605"
       cy="428.08795"
       rx="57.578693"
       ry="60.609154" />
    <path
       style="fill:none;fill-rule:evenodd;stroke:#000000;stroke-width:0.93900162px;stroke-linecap:butt;stroke-linejoin:miter;stroke-opacity:1"
       d="m 307.36091,423.52674 c -0.40674,1.29426 -0.17733,2.38711 -0.007,3.64741 0.0202,0.14965 0.0405,0.29933 0.0609,0.449 0.0203,0.14966 -0.0698,0.35623 0.0609,0.449 0.13066,0.0927 0.3628,-0.14817 0.49346,-0.0553 0.13064,0.0927 -0.0308,0.32339 0.0609,0.44899 0.12968,0.17764 0.42462,0.21598 0.55432,0.39362 0.0917,0.12561 -0.0698,0.35623 0.0609,0.449 0.13065,0.0927 0.33724,-0.10585 0.49344,-0.0553 0.22088,0.0713 0.33343,0.3223 0.55432,0.39359 0.4191,0.1353 1.06122,-0.30145 1.48033,-0.16617 0.22088,0.0713 0.33343,0.32232 0.55432,0.39362 0.31238,0.10086 0.72559,-0.29634 0.98689,-0.11075 0.13066,0.0928 -0.0953,0.39859 0.0609,0.449 0.32926,0.10631 1.64451,-0.32786 1.97378,-0.22156 0.22089,0.0713 0.42462,0.21597 0.55431,0.3936 0.0917,0.12562 -0.0697,0.35623 0.0609,0.44902 0.13066,0.0927 0.39149,0.0635 0.49345,-0.0553 0.10197,-0.11889 -0.16284,-0.33012 -0.0609,-0.449 0.20392,-0.23778 0.78297,0.12699 0.98689,-0.11075 0.10197,-0.1189 -0.16284,-0.33012 -0.0609,-0.449 0.10197,-0.11889 0.32897,-0.0369 0.49345,-0.0553 0.98688,-0.11074 1.97377,-0.22157 2.96067,-0.33235 0.16446,-0.0184 0.32896,-0.0369 0.49343,-0.0553 0.16449,-0.0184 0.3628,-0.14817 0.49345,-0.0553 0.13066,0.0927 -0.0308,0.3234 0.0609,0.44899 1.28014,1.75339 -0.0992,-0.47616 1.04776,0.33824 0.13066,0.0928 -0.0953,0.39857 0.0609,0.44899 0.31238,0.10086 0.67451,-0.21162 0.98689,-0.11075 0.15619,0.0504 -0.0698,0.35623 0.0609,0.449 0.26132,0.18556 0.72559,-0.29632 0.9869,-0.11074 0.13065,0.0927 -0.0697,0.35623 0.0609,0.449 0.26131,0.18555 0.72557,-0.29633 0.98688,-0.11074 0.13066,0.0927 -0.0697,0.35622 0.0609,0.449 0.13067,0.0927 0.40174,-0.18101 0.49345,-0.0553 0.18341,0.25122 -0.0618,0.64679 0.12175,0.89802 0.0917,0.12559 0.33725,-0.10586 0.49344,-0.0553 0.22089,0.0713 0.33343,0.3223 0.55432,0.39361 0.15618,0.0504 0.33725,-0.10586 0.49344,-0.0553 0.22089,0.0713 0.33343,0.3223 0.55432,0.39361 0.31238,0.10086 0.80348,-0.36201 0.98689,-0.11075 0.34495,2.54435 -0.30867,0.1866 0.61519,0.84261 0.13066,0.0928 -0.0698,0.35623 0.0609,0.44901 0.2613,0.18554 0.72559,-0.29634 0.98689,-0.11074 0.13065,0.0927 -0.0698,0.35623 0.0609,0.449 0.27715,0.19681 1.20317,-0.36297 1.48034,-0.16617 0.27715,0.19681 -0.0945,1.15019 0.18261,1.347 0.13066,0.0928 0.36279,-0.14816 0.49344,-0.0553 0.13066,0.0927 -0.0697,0.35623 0.0609,0.44901 0.13064,0.0928 0.36277,-0.14817 0.49343,-0.0553 0.2613,0.18555 -0.13957,0.71246 0.12174,0.89801 0.13065,0.0927 0.36278,-0.14817 0.49345,-0.0553 0.0251,0.0178 0.27567,2.03331 0.30436,2.24501 0.0203,0.14966 -0.0697,0.35622 0.0609,0.449 0.13065,0.0927 0.3628,-0.14817 0.49345,-0.0553 0.2613,0.18555 -0.13956,0.71245 0.12175,0.898 0.13064,0.0927 0.36278,-0.14817 0.49344,-0.0553 1.14691,0.8144 -1.56507,0.13886 0.61519,0.84261 1.31585,-0.14771 -0.18476,-0.13119 0.55432,0.39362 0.13065,0.0928 0.36278,-0.14818 0.49344,-0.0553 0.13066,0.0928 -0.0697,0.35623 0.0609,0.44901 0.13065,0.0928 0.36278,-0.14817 0.49344,-0.0553 0.36936,0.26227 -0.24762,0.63572 0.12174,0.898 0.13065,0.0927 0.3628,-0.14817 0.49345,-0.0553 0.27716,0.1968 -0.0945,1.1502 0.18262,1.34701 0.13065,0.0927 0.36278,-0.14818 0.49345,-0.0553 0.13065,0.0928 -0.0698,0.35623 0.0609,0.449 0.13065,0.0928 0.36278,-0.14817 0.49344,-0.0553 0.2613,0.18556 -0.0618,0.64679 0.12174,0.89802 1.28015,1.75336 -0.0992,-0.47619 1.04777,0.33821 0.13066,0.0928 -0.0698,0.35623 0.0609,0.449 0.13066,0.0928 0.36279,-0.14817 0.49344,-0.0553 0.7391,0.52482 -0.76153,0.54132 0.55432,0.39361 0.16448,-0.0184 0.47316,-0.20505 0.49344,-0.0553 0.0203,0.14966 -0.65792,0.0738 -0.49344,0.0553 2.79619,-0.31389 0.12391,-0.31779 1.04776,0.33822 0.27716,0.1968 1.20317,-0.36298 1.48033,-0.16617 0.13066,0.0928 -0.0698,0.35622 0.0609,0.449 0.26132,0.18555 0.72558,-0.29633 0.98689,-0.11074 0.13065,0.0927 -0.0697,0.35622 0.0609,0.44899 0.13067,0.0927 0.3628,-0.14816 0.49346,-0.0553 0.13065,0.0927 -0.0698,0.35622 0.0609,0.449 0.13066,0.0927 0.36279,-0.14816 0.49346,-0.0553 1.1469,0.81439 -1.56509,0.13877 0.61518,0.84261 0.1562,0.0504 0.36279,-0.14817 0.49345,-0.0553 0.2613,0.18556 -0.13957,0.71247 0.12174,0.89801 0.26131,0.18555 0.72559,-0.29633 0.98689,-0.11074 0.26131,0.18554 -0.13955,0.71244 0.12175,0.89799 0.26132,0.18556 0.72558,-0.29632 0.98688,-0.11074 0.27717,0.19681 -0.0945,1.15019 0.18263,1.347 0.13066,0.0928 0.36279,-0.14816 0.49344,-0.0553 0.13066,0.0927 0.0405,0.29932 0.0609,0.44899 0.0223,0.1649 0.26088,1.77571 0.2435,1.79602 -0.20391,0.23776 -0.78298,-0.127 -0.98689,0.11074 -0.10197,0.11889 0.16284,0.33012 0.0609,0.449 -0.10197,0.11889 -0.3554,-0.028 -0.49345,0.0553 -0.19522,0.118 -0.23735,0.38638 -0.43256,0.50439 -0.18359,0.11097 -1.39191,0.0631 -1.48033,0.16617 -0.10197,0.11889 0.19891,0.36556 0.0609,0.449 -0.41414,0.25034 -1.06621,-0.0842 -1.48034,0.16618 -0.19522,0.11801 -0.23735,0.38637 -0.43257,0.50438 -0.13804,0.0835 -0.43804,-0.0866 -0.49343,0.0553 -0.11086,0.28425 0.32565,0.66023 0.12174,0.89801 -0.20392,0.23777 -0.71082,-0.0562 -0.9869,0.11074 -0.13804,0.0835 0.16284,0.33012 0.0609,0.44899 -0.10197,0.11889 -0.39149,-0.0635 -0.49343,0.0553 -0.014,0.0162 0.16785,1.23811 0.18262,1.34701 0.16232,1.19733 0.14419,-0.16814 -0.43258,0.50439 -0.11836,0.13802 0.34432,1.53741 0.24349,1.796 -0.0784,0.201 -0.35422,0.3034 -0.43257,0.5044 -0.0554,0.14212 0.16283,0.33012 0.0609,0.44901 -0.10197,0.11888 -0.39149,-0.0635 -0.49343,0.0553 -0.10197,0.11887 0.16281,0.33011 0.0609,0.449 -0.10197,0.11889 -0.39149,-0.0635 -0.49345,0.0553 -0.29385,0.34264 0.62561,0.83632 -0.31082,1.4024 -0.27607,0.16689 -0.78297,-0.12699 -0.98689,0.11074 -0.10197,0.11889 0.16283,0.33012 0.0609,0.44902 -0.10197,0.11887 -0.39148,-0.0635 -0.49343,0.0553 -0.10197,0.11888 0.16283,0.33012 0.0609,0.449 -0.10197,0.11889 -0.39149,-0.0635 -0.49346,0.0553 -0.20389,0.23778 0.32568,0.66023 0.12176,0.89802 -0.0139,0.0162 -1.36066,0.15273 -1.48034,0.16617 -0.34321,0.0385 -2.27776,0.33808 -2.46722,0.27695 -0.22088,-0.0713 -0.33343,-0.32231 -0.55433,-0.39361 -0.0715,-0.0231 -2.89742,0.29411 -2.96065,0.33233 -0.39045,0.23603 -0.4747,0.77277 -0.86515,1.0088 -0.13803,0.0835 -0.39148,-0.0635 -0.49344,0.0553 -0.10197,0.11889 0.16283,0.33012 0.0609,0.44901 -0.20391,0.23777 -0.78298,-0.127 -0.98689,0.11074 -0.10197,0.1189 0.16283,0.33013 0.0609,0.449 -0.10197,0.11889 -0.39149,-0.0635 -0.49345,0.0553 -0.10197,0.11889 0.11629,0.3069 0.0609,0.44901 -0.0783,0.201 -0.3542,0.3034 -0.43258,0.5044 -0.0554,0.14212 0.16284,0.33012 0.0609,0.44899 -0.22798,0.26585 -0.69802,0.29395 -0.92601,0.55979 -0.10197,0.11889 0.11629,0.30688 0.0609,0.44901 -0.77345,1.9839 -0.031,-0.48383 -0.926,0.55978 -0.10197,0.11889 0.16283,0.33011 0.0609,0.449 -0.10197,0.11889 -0.32896,0.0369 -0.49346,0.0553 -1.15136,0.12925 -2.30273,0.25849 -3.4541,0.38773 -1.15138,0.12925 -2.30275,0.2585 -3.45413,0.38774 -0.16447,0.0184 -0.39148,-0.0635 -0.49343,0.0553 -0.10197,0.1189 0.16282,0.33012 0.0609,0.449 -0.10197,0.11889 -0.39148,-0.0635 -0.49344,0.0553 -0.10197,0.11888 0.16284,0.33012 0.0609,0.44901 -0.10197,0.11889 -0.39149,-0.0635 -0.49345,0.0553 -0.10197,0.11889 0.22536,0.43054 0.0609,0.449 -0.16446,0.0184 0.10364,-0.46746 -0.0609,-0.449 -0.23261,0.0261 -0.23735,0.38638 -0.43257,0.50439 -0.13666,0.0825 -2.94575,0.33067 -3.45411,0.38775 -0.32895,0.0369 -0.65792,0.0738 -0.98689,0.11074 -0.16448,0.0184 -0.39149,-0.0635 -0.49344,0.0553 -0.85847,1.00099 2.35607,-0.12042 -0.86514,1.00878 -0.233,0.0816 -1.72895,0.0735 -1.97378,0.22156 -0.19522,0.11801 -0.23736,0.38638 -0.43258,0.5044 -0.13802,0.0835 -0.39148,-0.0635 -0.49343,0.0553 -0.10197,0.11888 0.16282,0.33011 0.0609,0.449 -0.20391,0.23777 -0.78297,-0.12699 -0.98689,0.11074 -0.10197,0.11889 0.0405,0.29932 0.0609,0.449 0.0148,0.10886 0.1965,1.33079 0.18263,1.34701 -0.10197,0.11888 -0.32895,0.0369 -0.49344,0.0553 -0.16448,0.0184 -0.33725,0.10586 -0.49345,0.0553 -0.22088,-0.0713 -0.33343,-0.32231 -0.55432,-0.39361 -0.31239,-0.10086 -0.72558,0.29633 -0.98689,0.11074 -0.13065,-0.0927 0.0698,-0.35624 -0.0609,-0.44901 -0.13065,-0.0927 -0.36279,0.14817 -0.49343,0.0553 -0.0685,-0.0487 -0.20532,-1.51444 -0.2435,-1.79601 -0.10141,-0.74833 -0.20291,-1.49668 -0.30437,-2.24501 -0.0203,-0.14967 -0.0405,-0.29934 -0.0609,-0.44901 -0.0203,-0.14966 -0.11628,-0.30687 -0.0609,-0.449 0.0783,-0.20098 0.35421,-0.30339 0.43256,-0.50439 0.0738,-0.18901 -0.27104,-1.24389 -0.18261,-1.347 0.10197,-0.11889 0.3915,0.0635 0.49345,-0.0553 0.10197,-0.1189 -0.11629,-0.30689 -0.0609,-0.44901 0.0783,-0.20099 0.3542,-0.30339 0.43257,-0.50439 0.0554,-0.14213 -0.11629,-0.30688 -0.0609,-0.449 0.0783,-0.201 0.35422,-0.30341 0.43258,-0.50439 0.0554,-0.14213 -0.16284,-0.33012 -0.0609,-0.44901 0.10197,-0.11889 0.39149,0.0635 0.49345,-0.0553 0.10197,-0.11888 -0.16283,-0.33011 -0.0609,-0.449 0.10198,-0.11889 0.39149,0.0635 0.49344,-0.0553 0.21629,-0.25219 -0.39891,-1.0948 -0.18263,-1.347 0.10197,-0.11888 0.39149,0.0635 0.49346,-0.0553 0.2039,-0.23777 -0.32567,-0.66023 -0.12175,-0.898 0.2039,-0.23778 0.78297,0.12699 0.98689,-0.11075 0.2039,-0.23776 -0.32566,-0.66023 -0.12176,-0.89799 0.10197,-0.11889 0.39149,0.0635 0.49346,-0.0553 0.10197,-0.11889 -0.16284,-0.33011 -0.0609,-0.449 0.10197,-0.11888 0.39148,0.0635 0.49343,-0.0553 0.20392,-0.23776 -0.32566,-0.66022 -0.12174,-0.89799 0.10197,-0.11889 0.39148,0.0635 0.49344,-0.0553 0.10197,-0.11889 -0.16283,-0.33011 -0.0609,-0.449 0.10197,-0.11888 0.39149,0.0635 0.49345,-0.0553 0.10197,-0.11888 -0.0406,-0.29932 -0.0609,-0.44899 0.16448,-0.0184 0.39148,0.0635 0.49344,-0.0553 0.21628,-0.25219 -0.39892,-1.0948 -0.18262,-1.347 0.10197,-0.11889 0.39148,0.0635 0.49344,-0.0553 0.10197,-0.11889 -0.0405,-0.29935 -0.0609,-0.449 -0.12174,-0.89801 -0.2435,-1.79601 -0.36524,-2.69402 -0.0203,-0.14966 -0.16284,-0.33011 -0.0609,-0.449 0.10197,-0.11889 0.39149,0.0635 0.49346,-0.0553 0.10197,-0.11888 -0.1163,-0.30686 -0.0609,-0.449 0.0783,-0.201 0.3542,-0.3034 0.43256,-0.50438 0.0381,-0.0978 -0.10453,-1.29149 -0.18263,-1.34701 -0.13065,-0.0927 -0.36279,0.14816 -0.49343,0.0553 -0.26131,-0.18556 0.13956,-0.71245 -0.12175,-0.89801 -0.13065,-0.0927 -0.36279,0.14817 -0.49345,0.0553 -0.26131,-0.18555 0.0616,-0.64678 -0.12174,-0.89801 -0.12969,-0.17763 -0.42463,-0.21597 -0.55433,-0.3936 -0.0917,-0.12561 0.0308,-0.3234 -0.0609,-0.449 -1.28012,-1.75338 0.0992,0.47616 -1.04776,-0.33823 -0.13065,-0.0928 0.0698,-0.35623 -0.0609,-0.44899 -0.13066,-0.0927 -0.36279,0.14816 -0.49346,0.0553 -0.13063,-0.0927 0.0308,-0.3234 -0.0609,-0.449 -0.12969,-0.17764 -0.42462,-0.21599 -0.55431,-0.39362 -0.18343,-0.25122 0.13956,-0.71245 -0.12176,-0.89801 -0.13065,-0.0927 -0.36278,0.14817 -0.49344,0.0553 -0.13065,-0.0928 0.0698,-0.35623 -0.0609,-0.449 -0.13065,-0.0928 -0.36278,0.14817 -0.49344,0.0553 -0.26131,-0.18555 0.0616,-0.64678 -0.12175,-0.89801 -0.12968,-0.17764 -0.42462,-0.21597 -0.55431,-0.39361 -0.0918,-0.12561 -0.0405,-0.29933 -0.0609,-0.449 -0.0202,-0.14968 -0.0405,-0.29935 -0.0609,-0.449 -0.14202,-1.04769 -0.28406,-2.09535 -0.42611,-3.14302 -0.10141,-0.74833 -0.2029,-1.49668 -0.30436,-2.24501 -0.0203,-0.14967 -0.16283,-0.33011 -0.0609,-0.449 0.10197,-0.11889 0.39148,0.0635 0.49343,-0.0553 0.20392,-0.23776 -0.32566,-0.66022 -0.12173,-0.898 0.10197,-0.11889 0.39147,0.0635 0.49343,-0.0553 0.10197,-0.11889 -0.16284,-0.33011 -0.0609,-0.449 0.10197,-0.11889 0.39149,0.0635 0.49346,-0.0553 0.20389,-0.23776 -0.32567,-0.66022 -0.12176,-0.898 0.10197,-0.11889 0.39149,0.0635 0.49345,-0.0553 0.10197,-0.11889 -0.1163,-0.30688 -0.0609,-0.449 0.0783,-0.201 0.35421,-0.3034 0.43257,-0.5044 0.0554,-0.14212 -0.16284,-0.33011 -0.0609,-0.449 0.10197,-0.11888 0.39149,0.0635 0.49346,-0.0553 0.10197,-0.11889 -0.16284,-0.33011 -0.0609,-0.449 0.10197,-0.11889 0.39148,0.0635 0.49343,-0.0553 0.20392,-0.23777 -0.23257,-0.61376 -0.12174,-0.89801 0.0783,-0.20098 0.24779,-0.6356 0.43257,-0.50439 0.2613,0.18555 -0.0618,0.64678 0.12174,0.898 0.0158,0.0215 1.4415,-0.12093 1.48034,-0.16617 0.10197,-0.11889 -0.16283,-0.33011 -0.0609,-0.44901 0.20389,-0.23777 0.78297,0.12699 0.98687,-0.11075 0.10197,-0.11887 -0.11628,-0.30686 -0.0609,-0.44899 0.0783,-0.201 0.35421,-0.3034 0.43258,-0.5044 0.0554,-0.14212 -0.1163,-0.30687 -0.0609,-0.449 0.0783,-0.20098 0.35419,-0.3034 0.43256,-0.5044 0.0489,-0.12534 -0.21166,-1.56122 -0.2435,-1.796 -0.0203,-0.14967 -0.0405,-0.29933 -0.0609,-0.44901 -0.0203,-0.14966 -0.22535,-0.43053 -0.0609,-0.449 0.16447,-0.0184 0.0811,0.59868 0.0609,0.449 -0.0405,-0.29932 0.0618,-0.64679 -0.12175,-0.898 -0.0917,-0.12561 -0.33098,0.0852 -0.49344,0.0553 -3.72121,-0.68288 0.79552,0.0421 -1.60208,-0.73183 -0.31238,-0.10086 -0.72559,0.29634 -0.98689,0.11074 -0.13065,-0.0928 0.0697,-0.35623 -0.0609,-0.449 -0.13067,-0.0927 -0.33726,0.10586 -0.49346,0.0553 -0.22089,-0.0713 -0.33344,-0.32232 -0.55432,-0.39362 -0.15619,-0.0504 -0.36279,0.14817 -0.49344,0.0553 -0.13065,-0.0928 0.0698,-0.35621 -0.0609,-0.449 -0.13066,-0.0927 -0.33725,0.10586 -0.49346,0.0553 -0.22089,-0.0713 -0.33342,-0.3223 -0.55431,-0.3936 -0.1562,-0.0504 -0.33725,0.10586 -0.49345,0.0553 -0.22088,-0.0713 -0.36953,-0.26241 -0.55431,-0.39362 -0.18478,-0.13119 -0.42464,-0.21597 -0.55432,-0.39361 -0.0917,-0.1256 -0.0405,-0.29933 -0.0609,-0.449 -0.0202,-0.14966 -0.0405,-0.29933 -0.0609,-0.449 -0.0203,-0.14967 0.0698,-0.35623 -0.0609,-0.449 -0.13066,-0.0927 -0.3628,0.14817 -0.49345,0.0553 -0.11332,-0.0804 -0.0607,-1.17997 -0.18262,-1.34701 -0.1297,-0.17764 -0.36955,-0.26241 -0.55433,-0.39362 -0.0405,-0.29933 0.0208,-0.62571 -0.12174,-0.898 -0.70341,-1.34386 -0.30867,0.1866 -1.04776,-0.33823 -0.13339,-0.0947 -0.11008,-1.70129 -0.2435,-1.79599 -0.13066,-0.0928 -0.36279,0.14815 -0.49344,0.0553 -0.26131,-0.18555 0.0618,-0.64679 -0.12176,-0.898 -0.25936,-0.35528 -0.84924,-0.43195 -1.10863,-0.78723 -0.0917,-0.12561 0.0698,-0.35623 -0.0609,-0.44899 -0.13065,-0.0928 -0.36279,0.14816 -0.49343,0.0553 -0.26131,-0.18556 0.13955,-0.71246 -0.12176,-0.89802 -0.13065,-0.0927 -0.36279,0.14818 -0.49344,0.0553 -1.1469,-0.8144 1.56506,-0.13887 -0.6152,-0.84261 -0.15617,-0.0504 -0.36279,0.14817 -0.49343,0.0553 -0.13066,-0.0928 0.0308,-0.3234 -0.0609,-0.449 -0.1297,-0.17764 -0.42462,-0.21597 -0.55432,-0.39361 -0.0918,-0.12562 0.0698,-0.35623 -0.0609,-0.449 -0.13066,-0.0928 -0.36278,0.14816 -0.49346,0.0553 -0.13064,-0.0927 0.0698,-0.35623 -0.0609,-0.44899 -0.13065,-0.0927 -0.33099,0.0852 -0.49344,0.0553 -1.18065,-0.21667 -1.01284,-0.0804 -1.10864,-0.78723 -0.16234,-1.19735 0.18476,0.13121 -0.55432,-0.3936 -0.26131,-0.18556 0.13956,-0.71247 -0.12174,-0.89802 -0.13066,-0.0928 -0.3628,0.14817 -0.49346,0.0553 -0.13065,-0.0927 0.0698,-0.35622 -0.0609,-0.449 -0.13066,-0.0927 -0.36279,0.14816 -0.49344,0.0553 -0.0179,-0.0127 -0.16787,-1.23811 -0.18262,-1.347 -0.10141,-0.74834 -0.20292,-1.49669 -0.30438,-2.24501 -0.0202,-0.14968 -0.0405,-0.29935 -0.0609,-0.44902 -0.0203,-0.14967 -0.1163,-0.30687 -0.0609,-0.449 0.0783,-0.20099 0.3542,-0.3034 0.43256,-0.50439 0.0554,-0.14213 -0.0405,-0.29934 -0.0609,-0.44901 -0.0203,-0.14967 -0.0405,-0.29933 -0.0609,-0.44899 -0.0148,-0.10886 -0.1965,-1.3308 -0.18262,-1.34701 0.10197,-0.11888 0.39148,0.0635 0.49344,-0.0553 0.0884,-0.10309 -0.25631,-1.158 -0.18261,-1.34701 0.0783,-0.201 0.35421,-0.3034 0.43256,-0.5044 0.0738,-0.189 -0.27105,-1.24389 -0.18262,-1.347 0.10197,-0.11888 0.36279,-0.14816 0.49344,-0.0553 0.13066,0.0928 0.0405,0.29933 0.0609,0.449 0.0148,0.10886 0.19649,1.3308 0.18263,1.34701 -0.10197,0.11888 -0.39149,-0.0635 -0.49346,0.0553 -0.10197,0.11889 0.0405,0.29934 0.0609,0.449 0.0203,0.14966 0.0405,0.29934 0.0609,0.449 0.0203,0.14967 0.0405,0.29934 0.0609,0.44901 0.0203,0.14967 0.19892,0.36555 0.0609,0.44899 -0.27608,0.16691 -0.65793,0.0738 -0.98688,0.11075 -0.16449,0.0184 -0.40174,0.181 -0.49345,0.0553 -0.0481,-0.0659 -0.28735,-2.11948 -0.30436,-2.24501 -0.0609,-0.44899 -0.12176,-0.898 -0.18263,-1.347 -0.0203,-0.14968 -0.16283,-0.33012 -0.0609,-0.44901 0.10197,-0.11888 0.39149,0.0635 0.49345,-0.0553 0.10197,-0.11889 -0.16285,-0.33012 -0.0609,-0.449 0.10197,-0.11889 0.39149,0.0635 0.49345,-0.0553 0.20392,-0.23777 -0.32567,-0.66023 -0.12174,-0.89801 0.10197,-0.11888 0.39148,0.0635 0.49343,-0.0553 0.10197,-0.11889 -0.16282,-0.33012 -0.0609,-0.44901 0.10197,-0.11888 0.39149,0.0635 0.49344,-0.0553 0.10197,-0.11889 -0.16283,-0.33012 -0.0609,-0.44899 0.10197,-0.11889 0.39149,0.0635 0.49346,-0.0553 0.10197,-0.11889 -0.16284,-0.33012 -0.0609,-0.449 0.10197,-0.11889 0.39148,0.0635 0.49343,-0.0553 0.20393,-0.23779 -0.23255,-0.61377 -0.12174,-0.898 0.0783,-0.201 0.35422,-0.30342 0.43257,-0.5044 0.0554,-0.14213 -0.16284,-0.33012 -0.0609,-0.44902 0.10197,-0.11887 0.39149,0.0635 0.49346,-0.0553 0.21627,-0.2522 -0.39892,-1.09482 -0.18263,-1.347 0.10197,-0.11889 0.39148,0.0635 0.49344,-0.0553 0.11836,-0.13801 -0.34431,-1.53741 -0.2435,-1.79601 0.77346,-1.98391 0.031,0.48382 0.92603,-0.5598 0.20391,-0.23776 -0.23258,-0.61375 -0.12175,-0.898 0.0783,-0.20099 0.35421,-0.30339 0.43256,-0.50439 0.16624,-0.42637 -0.34885,-0.92063 -0.18261,-1.347 0.0554,-0.14214 0.39148,0.0635 0.49344,-0.0553 0.10197,-0.11889 -0.16283,-0.33013 -0.0609,-0.44901 0.28849,-0.33638 0.69841,0.22561 0.98689,-0.11075 0.20392,-0.23776 -0.32566,-0.66023 -0.12175,-0.898 0.10197,-0.11889 0.39149,0.0635 0.49345,-0.0553 0.10197,-0.11889 -0.16283,-0.33011 -0.0609,-0.44901 0.20392,-0.23777 0.78297,0.12699 0.98689,-0.11075 0.10197,-0.11889 -0.16283,-0.33011 -0.0609,-0.44899 0.20391,-0.23779 0.78297,0.12699 0.98689,-0.11075 0.22798,-0.26583 0.14371,-0.68755 0.37169,-0.95339 0.10197,-0.11888 0.35541,0.028 0.49343,-0.0553 0.39046,-0.23603 0.47471,-0.77277 0.86516,-1.0088 0.13804,-0.0835 0.35541,0.028 0.49345,-0.0553 0.19522,-0.11801 0.23734,-0.38638 0.43256,-0.5044 0.27609,-0.16689 0.7108,0.0562 0.98689,-0.11075 0.19523,-0.11801 0.23735,-0.38637 0.43258,-0.50438 0.13803,-0.0835 0.39149,0.0635 0.49344,-0.0553 0.10197,-0.11889 -0.16283,-0.33011 -0.0609,-0.449 0.20392,-0.23778 0.78298,0.12699 0.9869,-0.11075 0.10197,-0.11888 -0.16283,-0.33011 -0.0609,-0.44899 0.2039,-0.23777 0.87605,0.17346 0.98689,-0.11074 0.11085,-0.28425 -0.23258,-0.61376 -0.12175,-0.89802 0.0554,-0.14211 0.32896,-0.0369 0.49345,-0.0553 0.34974,-0.0392 2.84095,-0.25998 2.96066,-0.33234 0.19522,-0.11802 0.23735,-0.38638 0.43257,-0.50439 0.18358,-0.11097 1.39189,-0.0631 1.48033,-0.16617 0.10197,-0.11889 -0.16283,-0.33012 -0.0609,-0.44901 0.10197,-0.11888 0.34381,0.009 0.49344,-0.0553 3.42724,-1.48532 -0.76041,0.21679 1.35859,-1.06417 0.0633,-0.0382 2.88911,-0.35546 2.96067,-0.33235 0.22088,0.0713 0.42462,0.21596 0.55431,0.3936 0.0917,0.12562 -0.10363,0.46747 0.0609,0.44901 0.52013,-0.0584 0.93042,-0.44373 1.41947,-0.61518 0.15464,-0.0542 0.32895,-0.0369 0.49343,-0.0553 0.16449,-0.0184 0.3628,-0.14816 0.49346,-0.0553 0.2613,0.18556 -0.13957,0.71245 0.12174,0.89801 0.13066,0.0928 0.36279,-0.14817 0.49344,-0.0553 0.13066,0.0928 -0.0698,0.35622 0.0609,0.44899 1.14691,0.8144 -0.23243,-1.41515 1.04777,0.33822 0.18341,0.25123 -0.13957,0.71246 0.12174,0.89801 0.13065,0.0927 0.36278,-0.14817 0.49343,-0.0553 0.13067,0.0927 -0.0697,0.35622 0.0609,0.449 0.13067,0.0927 0.3628,-0.14817 0.49345,-0.0553 0.13066,0.0927 -0.0698,0.35621 0.0609,0.44899 0.13339,0.0948 1.8404,-0.31628 1.97378,-0.22157 0.13065,0.0928 -0.0698,0.35623 0.0609,0.44901 0.13272,0.0942 1.95994,-0.32365 1.97377,-0.22157 0.0203,0.14967 -0.65792,0.0738 -0.49345,0.0553 0.32897,-0.0369 0.65795,-0.0739 0.9869,-0.11075 0.82241,-0.0923 1.64481,-0.18463 2.46722,-0.27695 0.32897,-0.0369 0.65793,-0.0738 0.98689,-0.11074 0.16449,-0.0184 0.47316,-0.20506 0.49345,-0.0553 0.0202,0.14968 -0.51374,-0.0943 -0.49345,0.0553 0.0238,0.17534 0.99316,0.40189 0.61519,0.84262 -0.10197,0.11888 -0.35539,-0.028 -0.49344,0.0553 -0.19522,0.11803 -0.28838,0.33627 -0.43257,0.5044 -0.14418,0.16814 -0.38624,0.29534 -0.43258,0.5044 -0.0655,0.29565 0.27047,0.62845 0.12176,0.898 -0.16627,0.30136 -0.64516,0.33979 -0.92602,0.55978 -0.98362,0.065 -0.1437,0.68756 -0.37169,0.9534 -0.20392,0.23777 -0.78299,-0.12699 -0.98689,0.11075 -0.10197,0.11889 0.16282,0.33011 0.0609,0.449 -0.21629,0.25219 -1.26406,-0.086 -1.48034,0.16617 -0.10197,0.11889 0.16283,0.33012 0.0609,0.44901 -0.10197,0.11888 -0.32895,0.0369 -0.49344,0.0553 -0.16449,0.0184 -0.47314,0.20505 -0.49344,0.0553 -0.0202,-0.14967 0.47315,-0.20506 0.49344,-0.0553 0.0195,0.14477 -0.76187,0.74391 -0.86514,1.00879 -0.0554,0.14212 0.0405,0.29933 0.0609,0.449 0.0203,0.14967 -0.0697,0.35623 0.0609,0.44899 1.14691,0.81441 -0.23233,-1.41515 1.04776,0.33822 0.18342,0.25123 -0.13956,0.71246 0.12175,0.89801 0.13065,0.0927 0.36278,-0.14816 0.49344,-0.0553 0.73909,0.52481 -0.76154,0.54133 0.55432,0.39361 0.32896,-0.0369 1.31585,-0.14771 0.98689,-0.11075 -0.32897,0.0369 -1.31585,0.14771 -0.98689,0.11075 4.60548,-0.51697 0.55432,0.39362 1.41945,-0.61518 0.10197,-0.11887 0.39149,0.0635 0.49346,-0.0553 0.10197,-0.11888 -0.16284,-0.33011 -0.0609,-0.449 0.20392,-0.23777 0.78297,0.12699 0.98689,-0.11074 0.20392,-0.23778 -0.32566,-0.66024 -0.12176,-0.89802 0.10197,-0.11887 0.35541,0.028 0.49346,-0.0553 0.19522,-0.11801 0.23735,-0.38637 0.43256,-0.50438 0.27609,-0.16691 0.78297,0.12698 0.98689,-0.11075 0.10197,-0.11888 -0.16283,-0.33011 -0.0609,-0.449 0.0195,-0.0229 2.23456,-0.25084 2.46721,-0.27695 0.16449,-0.0184 0.3628,-0.14817 0.49345,-0.0553 0.13065,0.0928 0.0405,0.29935 0.0609,0.44901 0.0288,0.2117 0.27923,2.22718 0.30437,2.245 0.13339,0.0948 1.84038,-0.31627 1.97377,-0.22155 0.13067,0.0927 -0.0697,0.35623 0.0609,0.449 0.36968,0.26251 0.6172,-0.37329 0.98689,-0.11075 0.11333,0.0804 0.0606,1.17997 0.18261,1.347 0.12969,0.17764 0.42463,0.21598 0.55433,0.39362 0.088,0.12056 0.27184,2.00515 0.30436,2.24501 0.0203,0.14967 -0.0697,0.35623 0.0609,0.449 0.13065,0.0928 0.33725,-0.10586 0.49344,-0.0553 0.22089,0.0713 0.33343,0.32231 0.55432,0.3936 0.15619,0.0504 0.3628,-0.14815 0.49345,-0.0553 0.13065,0.0928 -0.0698,0.35624 0.0609,0.449 0.13065,0.0928 0.36279,-0.14815 0.49343,-0.0553 0.13067,0.0928 0.16285,0.33011 0.0609,0.449 -0.70052,0.81685 -1.91214,0.67048 -2.89978,0.78135 -0.32897,0.0369 -0.68765,-0.0189 -0.9869,0.11074 -0.21158,0.0918 -0.23734,0.38639 -0.43256,0.5044 -0.16746,0.10119 -2.12402,0.23843 -2.46723,0.27695 -0.16448,0.0184 -0.36278,0.14817 -0.49344,0.0553 -0.13065,-0.0928 0.0697,-0.35623 -0.0609,-0.44901 -0.33026,-0.23451 -1.41958,0.61431 -1.54121,-0.28282 -0.0202,-0.14967 0.47316,-0.20506 0.49344,-0.0553 0.0203,0.14967 -0.65791,0.0739 -0.49344,0.0553 0.49344,-0.0553 0.98689,-0.11074 1.48033,-0.16617 0.16449,-0.0184 0.3628,-0.14817 0.49345,-0.0553 0.13065,0.0927 -0.0698,0.35623 0.0609,0.449 0.13065,0.0927 0.36278,-0.14815 0.49345,-0.0553 0.13065,0.0928 -0.0698,0.35622 0.0609,0.44901 0.13066,0.0927 0.36279,-0.14817 0.49345,-0.0553 0.0782,0.0555 0.22074,1.24922 0.18262,1.34702 -0.0783,0.20099 -0.35422,0.3034 -0.43258,0.50438 -0.0554,0.14213 -0.0698,0.35622 0.0609,0.44901 0.0376,0.0266 2.39047,-0.47345 0.12176,0.898 -0.17401,0.10519 -2.42327,0.27202 -2.96068,0.33235 -0.82241,0.0923 -1.64481,0.18463 -2.46722,0.27695 -0.4864,0.0546 -1.47329,0.16539 -0.98689,0.11075 0.32896,-0.0369 1.31585,-0.14772 0.98689,-0.11075 -0.65793,0.0738 -1.31581,0.29513 -1.97378,0.22157 -0.16448,-0.0183 0.0698,-0.35623 -0.0609,-0.449 -0.0179,-0.0128 -1.36065,0.15274 -1.48033,0.16617 -0.16449,0.0184 -0.39149,-0.0635 -0.49345,0.0553 -0.10197,0.11887 0.16283,0.33011 0.0609,0.44899 -0.10197,0.11889 -0.35542,-0.028 -0.49345,0.0553 -0.19522,0.11801 -0.23735,0.38638 -0.43257,0.50439 -0.13804,0.0835 -0.39149,-0.0635 -0.49345,0.0553 -0.10197,0.11889 0.16283,0.33011 0.0609,0.449 -0.10197,0.11889 -0.39148,-0.0635 -0.49344,0.0553 -0.21628,0.25219 0.3989,1.0948 0.18262,1.34699 -0.10197,0.11889 -0.39148,-0.0635 -0.49344,0.0553 -0.10197,0.11889 0.16282,0.33012 0.0609,0.449 -0.10197,0.11889 -0.3915,-0.0635 -0.49343,0.0553 -0.20393,0.23779 0.32565,0.66024 0.12174,0.89801 -0.10197,0.11888 -0.3915,-0.0635 -0.49345,0.0553 -0.10197,0.11889 0.16283,0.33012 0.0609,0.44901 -0.13261,0.15462 -2.33355,0.12107 -2.46722,0.27695 -0.10197,0.11889 0.16282,0.33011 0.0609,0.44901 -0.10197,0.11888 -0.32897,0.0369 -0.49345,0.0553 -0.20759,0.0233 -2.80484,0.38262 -2.96067,0.33235 -0.22089,-0.0713 -0.42462,-0.21599 -0.55432,-0.39362 -0.26659,-0.36513 0.43386,-1.23388 -1.04776,-0.33823 -0.13805,0.0835 0.0405,0.29934 0.0609,0.44902 0.0203,0.14965 0.0405,0.29932 0.0609,0.449 0.0223,0.16488 0.26087,1.7757 0.2435,1.79601 -0.10197,0.11887 -0.39149,-0.0635 -0.49345,0.0553 -0.21628,0.2522 0.39891,1.09481 0.18262,1.347 -0.10197,0.11889 -0.32896,0.0369 -0.49345,0.0553 -0.16447,0.0184 -0.32896,0.0369 -0.49343,0.0553 -0.25804,0.0289 -1.83602,0.26603 -1.97379,0.22156 -0.22088,-0.0713 -0.33343,-0.3223 -0.55432,-0.39361 -0.72261,-0.23327 -0.36763,0.59332 -1.04775,-0.33822 -0.0917,-0.1256 -0.0405,-0.29933 -0.0609,-0.449 -0.0203,-0.14967 -0.0405,-0.29933 -0.0609,-0.449 -0.16011,-1.18096 0.42011,0.13271 0.86514,-1.00879 0.0554,-0.14212 -0.16282,-0.33012 -0.0609,-0.449 0.2039,-0.23778 0.78297,0.12699 0.98689,-0.11074 0.10197,-0.11889 -0.16283,-0.33012 -0.0609,-0.449 0.10197,-0.11889 0.39149,0.0635 0.49344,-0.0553 0.10197,-0.1189 0.0698,-0.35623 -0.0609,-0.44901 -0.27716,-0.1968 -1.20317,0.36298 -1.48034,0.16617 -0.13064,-0.0928 0.0953,-0.39857 -0.0609,-0.44899 -0.32928,-0.1063 -1.64452,0.32785 -1.97378,0.22156 -0.22089,-0.0713 -0.33343,-0.32231 -0.55432,-0.39361 -0.15619,-0.0504 -0.36279,0.14817 -0.49344,0.0553 -0.13065,-0.0928 0.0698,-0.35623 -0.0609,-0.44901 -0.13065,-0.0928 -0.36278,0.14817 -0.49344,0.0553 -0.13066,-0.0928 0.0697,-0.35622 -0.0609,-0.44899 -0.13065,-0.0928 -0.36278,0.14817 -0.49344,0.0553 -0.13065,-0.0928 -0.0405,-0.29933 -0.0609,-0.449 -0.0743,-0.54809 0.0511,-1.05689 -0.67606,-1.29163 -0.15943,-0.0514 -1.25811,0.14124 -1.48033,0.16618 -0.16449,0.0184 -0.39149,-0.0635 -0.49345,0.0553 -0.895,1.04361 1.55524,-0.2114 -0.37169,0.9534 -0.29102,0.17592 -1.68278,0.0457 -1.97379,0.22157 -0.19522,0.11801 -0.23735,0.38638 -0.43256,0.50439 -0.27609,0.16689 -0.78297,-0.12699 -0.98689,0.11074 -0.10197,0.11889 0.16283,0.33013 0.0609,0.44902 -0.10197,0.11888 -0.39149,-0.0635 -0.49343,0.0553 -0.20393,0.23778 0.32564,0.66024 0.12174,0.89801 -0.10197,0.11888 -0.39149,-0.0635 -0.49345,0.0553 -0.10197,0.11889 0.0405,0.29935 0.0609,0.44902 0.0202,0.14967 0.0405,0.29933 0.0609,0.44899 0.12176,0.89801 0.2435,1.79602 0.36525,2.69401 0.0202,0.14967 -0.0697,0.35623 0.0609,0.44902 0.13066,0.0928 0.36279,-0.14817 0.49345,-0.0553 0.13065,0.0928 -0.0698,0.35623 0.0609,0.449 0.13064,0.0928 0.36278,-0.14817 0.49343,-0.0553 0.26132,0.18556 -0.13955,0.71246 0.12176,0.89802 0.11331,0.0804 1.2726,-0.23323 1.48033,-0.16617 0.22088,0.0713 0.33343,0.3223 0.55431,0.3936 0.0273,0.009 1.4561,-0.15154 1.48033,-0.16617 0.19523,-0.11801 0.23735,-0.38638 0.43257,-0.50439 0.13805,-0.0835 0.32896,-0.0369 0.49346,-0.0553 0.16447,-0.0184 0.36279,-0.14817 0.49345,-0.0553 0.13064,0.0927 0.0405,0.29932 0.0609,0.44899 0.10141,0.74835 0.20292,1.49667 0.30436,2.24501 0.0203,0.14967 0.16283,0.33012 0.0609,0.44901 -0.10197,0.11889 -0.39148,-0.0635 -0.49345,0.0553 -0.10197,0.11889 0.0405,0.29934 0.0609,0.449 0.0203,0.14967 0.0405,0.29934 0.0609,0.44901 0.0812,0.59866 0.16233,1.19733 0.2435,1.796 0.0405,0.29935 0.0174,0.61173 0.12174,0.89801 0.21505,0.59018 0.4913,1.16042 0.73695,1.74062 z"
       id="path7490"
       inkscape:connector-curvature="0" />
    <path
       style="fill:none;fill-rule:evenodd;stroke:#000000;stroke-width:1px;stroke-linecap:butt;stroke-linejoin:miter;stroke-opacity:1"
       d="m 347.49248,377.5803 c 2.18866,0 2.0203,-0.67343 2.0203,0.50508 0,0.16836 -0.11904,0.38603 0,0.50508 0.11905,0.11904 0.38603,-0.11905 0.50508,0 0.11905,0.11904 -0.11905,0.38602 0,0.50507 0.11905,0.11905 0.38603,-0.11905 0.50508,0 0.0162,0.0162 0,1.39274 0,1.51523 0,1.34687 0,2.69374 0,4.04061 0,0.16836 0,0.33672 0,0.50508 0,0.16836 -0.11905,0.38603 0,0.50507 0.11904,0.11905 0.38602,-0.11904 0.50507,0 0.2381,0.2381 -0.23809,0.77206 0,1.01016 0.11905,0.11904 0.38603,-0.11905 0.50508,0 0.11905,0.11904 -0.11905,0.38602 0,0.50507 0.12154,0.12154 1.89877,-0.12154 2.0203,0 0.11905,0.11905 0,0.33672 0,0.50508 0.16836,0 0.3545,-0.0753 0.50508,0 2.10201,1.051 -0.53994,-0.0349 0.50508,1.01015 0.11904,0.11905 0.33671,0 0.50507,0 0.1225,0 1.49899,0.0162 1.51523,0 0.11905,-0.11905 -0.0753,-0.35449 0,-0.50508 0.10648,-0.21295 0.37301,-0.30696 0.50508,-0.50507 0.20882,-0.31324 0.29625,-0.69692 0.50507,-1.01015 0.13208,-0.19811 0.3986,-0.29212 0.50508,-0.50508 0.0753,-0.15059 -0.11905,-0.38603 0,-0.50508 0.11905,-0.11904 0.38603,0.11905 0.50508,0 0.23809,-0.23809 -0.2381,-0.77205 0,-1.01015 0.12153,-0.12154 1.89876,0.12154 2.0203,0 0.11905,-0.11905 0,-0.33672 0,-0.50508 0,-0.12249 0.0162,-1.49898 0,-1.51522 -0.11905,-0.11905 -0.38603,0.11904 -0.50507,0 -1.04503,-1.04503 1.59693,0.0409 -0.50508,-1.01016 -0.15059,-0.0753 -0.38603,0.11905 -0.50508,0 -0.23809,-0.23809 0.2381,-0.77205 0,-1.01015 -0.11905,-0.11905 -0.38603,0.11905 -0.50507,0 -0.11905,-0.11905 0.11904,-0.38603 0,-0.50508 -0.11905,-0.11904 -0.38603,0.11905 -0.50508,0 -0.11905,-0.11904 0.15058,-0.42978 0,-0.50507 -0.30117,-0.15059 -0.70898,0.15058 -1.01015,0 -0.15059,-0.0753 0.11905,-0.38603 0,-0.50508 -0.11905,-0.11905 -0.38603,0.11905 -0.50508,0 -0.11905,-0.11905 0.15059,-0.42978 0,-0.50507 -2.8621,0 -0.16836,0.33671 -1.01015,-0.50508 -0.2381,-0.2381 -0.77206,0.23809 -1.01015,0 -0.11905,-0.11905 0.11904,-0.38603 0,-0.50508 -0.11905,-0.11904 -0.33672,0 -0.50508,0 0,-0.33671 0.15058,-0.70898 0,-1.01015 -0.0753,-0.15058 -0.38603,0.11905 -0.50508,0 -0.11904,-0.11905 0.11905,-0.38603 0,-0.50508 -0.11904,-0.11904 -0.33671,0 -0.50507,0 -0.16836,0 -0.33672,0 -0.50508,0 -0.16836,0 -0.67343,0 -0.50508,0 0.33672,0 1.34687,0 1.01016,0 -0.67344,0 -1.34687,0 -2.02031,0 -0.16836,0 -0.38603,-0.11904 -0.50507,0 -0.11905,0.11905 0.0753,0.3545 0,0.50508 -0.10648,0.21296 -0.3986,0.29212 -0.50508,0.50508 -0.0753,0.15058 0.11905,0.38603 0,0.50507 -0.11905,0.11905 -0.33672,0 -0.50508,0 -0.67343,0 -1.34687,0 -2.0203,0 z"
       id="path7492"
       inkscape:connector-curvature="0" />
    <path
       style="fill:none;fill-rule:evenodd;stroke:#000000;stroke-width:1px;stroke-linecap:butt;stroke-linejoin:miter;stroke-opacity:1"
       d="m 365.17014,379.09554 -0.50507,3.03045 c 0.16836,0 0.38603,-0.11905 0.50507,0 0.2381,0.2381 -0.23809,0.77206 0,1.01015 0.11905,0.11905 0.38603,-0.11904 0.50508,0 0.23809,0.2381 -0.15059,0.70899 0,1.01016 0.10648,0.21295 0.373,0.30696 0.50508,0.50507 0.20882,0.31324 0.38602,0.65301 0.50507,1.01015 0.20901,0.62702 -0.41462,0.55031 0.50508,1.01016 0.40406,0.20203 1.11117,-0.20203 1.51523,0 0.21296,0.10648 0.29211,0.39859 0.50507,0.50507 0.69668,0.34834 0.45178,-0.61167 1.01016,0.50508 0.0753,0.15058 -0.11905,0.38603 0,0.50508 0.25253,0.25253 1.26269,-0.25254 1.51522,0 0.10326,0.10325 -0.10012,1.31497 0,1.51522 0.10648,0.21296 0.3986,0.29212 0.50508,0.50508 0.0753,0.15059 -0.0753,0.35449 0,0.50508 0.10648,0.21296 0.3986,0.29211 0.50508,0.50507 0.10013,0.20026 -0.10326,1.41198 0,1.51523 0.11904,0.11905 0.38603,-0.11905 0.50507,0 0.11905,0.11905 -0.11904,0.38603 0,0.50508 0.11905,0.11905 0.38603,-0.11905 0.50508,0 0.23809,0.23809 -0.15059,0.70898 0,1.01015 0.10648,0.21296 0.3986,0.29212 0.50508,0.50508 0.0753,0.15058 -0.0753,0.35449 0,0.50507 0.10648,0.21296 0.33671,0.33672 0.50507,0.50508 0.16836,0.16836 0.3986,0.29212 0.50508,0.50508 0.0753,0.15058 -0.11905,0.38602 0,0.50507 0.11905,0.11905 0.38603,-0.11905 0.50507,0 1.04503,1.04502 -1.59693,-0.0408 0.50508,1.01015 0.30117,0.15059 0.77206,-0.23809 1.01015,0 0.11905,0.11905 0,0.33672 0,0.50508 l 0,3.03046 c 0,0.16836 0.0753,0.35449 0,0.50508 -0.10648,0.21295 -0.39859,0.29211 -0.50507,0.50507 -0.0753,0.15059 0,0.33672 0,0.50508 l 0,1.01015 c 0,0.16836 -0.11905,0.38603 0,0.50508 0.11904,0.11904 0.38603,-0.11905 0.50507,0 0.2381,0.23809 -0.23809,0.77205 0,1.01015 0.11905,0.11905 0.38603,-0.11905 0.50508,0 0.11905,0.11905 0,0.33672 0,0.50508 0,0.16835 0.0753,0.35449 0,0.50507 -0.10648,0.21296 -0.3986,0.29212 -0.50508,0.50508 -0.15058,0.30117 0.2381,0.77206 0,1.01015 -0.11904,0.11905 -0.38603,-0.11905 -0.50507,0 -0.0229,0.0229 0,2.28724 0,2.52538 l 0,0.50508 c 0,0.16836 -0.11905,0.38603 0,0.50507 0.11904,0.11905 0.38603,-0.11904 0.50507,0 0.11905,0.11905 -0.11904,0.38603 0,0.50508 0.11905,0.11905 0.38603,-0.11905 0.50508,0 0.18143,0.18143 -0.16338,1.69355 0,2.02031 0.0753,0.15058 0.38603,-0.11905 0.50508,0 0.11904,0.11904 -0.0753,0.35449 0,0.50507 0.33671,0.67344 1.07989,0.36561 0.50507,1.51523 -0.15058,0.30117 -0.77205,-0.23809 -1.01015,0 -0.11905,0.11905 0.11905,0.38603 0,0.50508 -0.11905,0.11904 -0.38603,-0.11905 -0.50508,0 -0.11904,0.11904 0.11905,0.38603 0,0.50507 -0.23809,0.2381 -0.77205,-0.23809 -1.01015,0 -0.11905,0.11905 0.0753,0.35449 0,0.50508 -0.23115,0.46231 -1.14612,0.88712 -1.51523,1.01015 -0.15972,0.0532 -0.50507,0.16836 -0.50507,0 0,-0.16836 0.38602,-0.11905 0.50507,0 0.11905,0.11905 0,0.33672 0,0.50508 l 0,2.52538 c 0,1.34687 0.16836,-0.16836 -0.50507,0.50508 -0.1382,0.1382 0.13699,1.7463 0,2.0203 -0.10648,0.21296 -0.3986,0.29212 -0.50508,0.50508 -0.0769,0.15371 0,1.28776 0,1.51523 0,0.3513 -0.0913,2.34273 0,2.52538 0.10648,0.21296 0.3986,0.29212 0.50508,0.50507 0.0664,0.13281 0,1.75619 0,2.02031 0,0.22746 0.0768,1.36152 0,1.51523 -1.05101,2.102 0.0349,-0.53995 -1.01016,0.50507 -0.11904,0.11905 0,0.33672 0,0.50508 l 0,4.04061 0,0.50508 c 0,0.16836 -0.11904,0.38603 0,0.50507 0.11905,0.11905 0.38603,-0.11904 0.50508,0 0.11905,0.11905 -0.11905,0.38603 0,0.50508 0.11905,0.11905 0.38603,-0.11905 0.50508,0 0.23809,0.23809 -0.2381,0.77206 0,1.01015 0.11904,0.11905 0.38602,-0.11905 0.50507,0 0.11905,0.11905 -0.11905,0.38603 0,0.50508 0.11905,0.11905 0.38603,-0.11905 0.50508,0 0.11905,0.11905 -0.11905,0.38603 0,0.50507 0.25254,0.25254 1.26269,-0.25253 1.51523,0 0.11904,0.11905 -0.11905,0.38603 0,0.50508 0.23809,0.2381 0.70898,-0.15058 1.01015,0 0.21296,0.10648 0.29212,0.3986 0.50508,0.50508 0.15058,0.0753 0.35449,-0.0753 0.50507,0 2.10201,1.051 -0.53994,-0.0349 0.50508,1.01015 0.23809,0.23809 0.77206,-0.2381 1.01015,0 0.11905,0.11905 0,0.33672 0,0.50508 l 0,4.04061 0,2.52538 c 0,0.16836 0.11905,0.38603 0,0.50507 -0.11905,0.11905 -0.38603,-0.11904 -0.50508,0 -0.10325,0.10326 0.10013,1.31497 0,1.51523 -0.10647,0.21296 -0.39859,0.29212 -0.50507,0.50508 -0.0753,0.15058 0.11905,0.38603 0,0.50508 -0.11905,0.11904 -0.38603,-0.11905 -0.50508,0 -0.11905,0.11904 0.0753,0.35449 0,0.50507 -1.051,2.10201 0.0349,-0.53994 -1.01015,0.50508 -0.11905,0.11905 0.11905,0.38603 0,0.50507 -0.11905,0.11905 -0.42978,-0.15058 -0.50508,0 -0.25123,0.50247 0.19983,1.41532 0,1.51523 -0.30117,0.15059 -0.70898,-0.15058 -1.01015,0 -0.20965,0.10483 0.1763,1.33893 0,1.51523 -0.11905,0.11905 -0.38603,-0.11905 -0.50508,0 -0.23809,0.2381 0.2381,0.77206 0,1.01015 -0.11904,0.11905 -0.42978,-0.15058 -0.50507,0 -0.15059,0.30117 0,0.67344 0,1.01016 0,0.16836 0.11905,0.38603 0,0.50507 -0.11905,0.11905 -0.38603,-0.11904 -0.50508,0 -0.15484,0.15484 0.15609,2.36929 0,2.52538 -0.11905,0.11905 -0.38603,-0.11904 -0.50507,0 -0.25254,0.25254 0.25253,1.26269 0,1.51523 -0.11905,0.11905 -0.38603,-0.11904 -0.50508,0 -0.2381,0.2381 0.15058,0.70899 0,1.01016 -0.10648,0.21295 -0.3986,0.29211 -0.50508,0.50507 -0.0753,0.15059 0,0.33672 0,0.50508 0,0.16836 -0.11904,0.38603 0,0.50507 1.04502,1.04503 -0.0408,-1.59693 1.01016,0.50508 0.0753,0.15059 -0.11905,0.38603 0,0.50508 0.11904,0.11904 0.33671,0 0.50507,0 l 0.50508,0"
       id="path7494"
       inkscape:connector-curvature="0"
       sodipodi:nodetypes="cccscscsssscsccccscccscccscsccsssscsssccssccccsscscscsccccsccccsssssccsccsccscsscsscsssccccccccscsccccccccccccscccsccssccccsscssc" />
    <path
       style="fill:none;fill-rule:evenodd;stroke:#000000;stroke-width:0.58957326px;stroke-linecap:butt;stroke-linejoin:miter;stroke-opacity:1"
       d="m 347.48862,415.49644 -3.29982,-1.15384 -2.16804,0.65267 3.40551,2.56631 0.64919,0.96766 1.2126,4.19785 1.50172,-1.16784 -0.0596,-4.57056 5.57498,-3.94058 2.37241,-0.22849 1.04675,1.14193 2.33002,10.58438 1.28963,-1.06564 0.34198,-12.57741 -0.37623,-2.35354 5.04864,-3.94827 c 0,0 1.12303,-1.19444 0.61384,-1.65465 -0.5092,-0.46021 -2.24363,0.0619 -2.24363,0.0619 l -4.99543,3.19096 -2.61632,-1.0912 -11.7739,-3.44686 -1.5017,1.16783 9.03749,5.52319 1.27001,1.71379 -0.50395,1.34037 z"
       id="path7554"
       inkscape:connector-curvature="0" />
    <path
       style="fill:none;fill-rule:evenodd;stroke:#000000;stroke-width:0.57552922px;stroke-linecap:butt;stroke-linejoin:miter;stroke-opacity:1"
       d="m 345.35391,420.34431 -7.84469,5.38571"
       id="path7556-2"
       inkscape:connector-curvature="0"
       sodipodi:nodetypes="cc" />
    <path
       style="fill:none;fill-rule:evenodd;stroke:#000000;stroke-width:0.57552922px;stroke-linecap:butt;stroke-linejoin:miter;stroke-opacity:1"
       d="m 342.80822,417.31386 -7.84469,5.38571"
       id="path7556-2-1"
       inkscape:connector-curvature="0"
       sodipodi:nodetypes="cc" />
    <path
       style="fill:none;fill-rule:evenodd;stroke:#000000;stroke-width:0.57552922px;stroke-linecap:butt;stroke-linejoin:miter;stroke-opacity:1"
       d="m 356.97066,422.8697 -7.84469,5.38571"
       id="path7556-2-15"
       inkscape:connector-curvature="0"
       sodipodi:nodetypes="cc" />
    <path
       style="fill:none;fill-rule:evenodd;stroke:#000000;stroke-width:0.57552922px;stroke-linecap:butt;stroke-linejoin:miter;stroke-opacity:1"
       d="m 345.35391,406.20218 -7.84469,5.38571"
       id="path7556-2-15-5"
       inkscape:connector-curvature="0"
       sodipodi:nodetypes="cc" />
    <path
       style="fill:none;fill-rule:evenodd;stroke:#000000;stroke-width:1px;stroke-linecap:butt;stroke-linejoin:miter;stroke-opacity:1"
       d="m 360.11938,366.9737 44.44671,-64.14468 139.90613,99.50002 -66.67007,88.89343 -78.79189,-55.05332"
       id="path7635"
       inkscape:connector-curvature="0" />
    <path
       sodipodi:type="star"
       style="opacity:0.47700004;fill:#ffffff;fill-opacity:0;stroke:#000000;stroke-opacity:1"
       id="path7637"
       sodipodi:sides="5"
       sodipodi:cx="409.11179"
       sodipodi:cy="335.15388"
       sodipodi:r1="13.170778"
       sodipodi:r2="6.5853891"
       sodipodi:arg1="1.6475682"
       sodipodi:arg2="2.2758867"
       inkscape:flatsided="false"
       inkscape:rounded="0"
       inkscape:randomized="0"
       d="m 408.10163,348.28585 -3.25785,-8.11686 -8.53341,-1.91783 6.71286,-5.60665 -0.813,-8.70839 7.40663,4.65176 8.03094,-3.46426 -2.13531,8.4816 5.7764,6.56737 -8.72633,0.59015 z"
       inkscape:transform-center-x="0.3121543"
       inkscape:transform-center-y="0.95711642" />
    <path
       sodipodi:type="star"
       style="opacity:0.47700004;fill:#ffffff;fill-opacity:0;stroke:#000000;stroke-width:0.33073458;stroke-opacity:1"
       id="path7637-0"
       sodipodi:sides="5"
       sodipodi:cx="432.09795"
       sodipodi:cy="337.71114"
       sodipodi:r1="4.3560319"
       sodipodi:r2="2.1780159"
       sodipodi:arg1="1.6475682"
       sodipodi:arg2="2.2758867"
       inkscape:flatsided="false"
       inkscape:rounded="0"
       inkscape:randomized="0"
       d="m 431.76387,342.05435 -1.07749,-2.68452 -2.82229,-0.6343 2.22018,-1.85431 -0.26889,-2.88017 2.44963,1.5385 2.65611,-1.14575 -0.70622,2.80516 1.91045,2.17205 -2.8861,0.19519 z"
       inkscape:transform-center-x="0.10324026"
       inkscape:transform-center-y="0.31655143" />
    <path
       sodipodi:type="star"
       style="opacity:0.47700004;fill:#ffffff;fill-opacity:0;stroke:#000000;stroke-width:0.33073458;stroke-opacity:1"
       id="path7637-0-8"
       sodipodi:sides="5"
       sodipodi:cx="432.01265"
       sodipodi:cy="347.88949"
       sodipodi:r1="4.3560319"
       sodipodi:r2="2.1780159"
       sodipodi:arg1="1.6475682"
       sodipodi:arg2="2.2758867"
       inkscape:flatsided="false"
       inkscape:rounded="0"
       inkscape:randomized="0"
       d="m 431.67857,352.2327 -1.07748,-2.68453 -2.8223,-0.63429 2.22018,-1.85432 -0.26889,-2.88016 2.44963,1.5385 2.65611,-1.14575 -0.70622,2.80515 1.91045,2.17206 -2.88609,0.19518 z"
       inkscape:transform-center-x="0.10323619"
       inkscape:transform-center-y="0.31655877" />
    <path
       sodipodi:type="star"
       style="opacity:0.47700004;fill:#ffffff;fill-opacity:0;stroke:#000000;stroke-width:0.33073458;stroke-opacity:1"
       id="path7637-0-8-8"
       sodipodi:sides="5"
       sodipodi:cx="425.0429"
       sodipodi:cy="354.55749"
       sodipodi:r1="4.3560319"
       sodipodi:r2="2.1780159"
       sodipodi:arg1="1.6475682"
       sodipodi:arg2="2.2758867"
       inkscape:flatsided="false"
       inkscape:rounded="0"
       inkscape:randomized="0"
       d="m 424.70882,358.9007 -1.07749,-2.68453 -2.82229,-0.63429 2.22017,-1.85432 -0.26889,-2.88016 2.44963,1.53849 2.65611,-1.14574 -0.70622,2.80515 1.91046,2.17206 -2.8861,0.19518 z"
       inkscape:transform-center-x="0.10325113"
       inkscape:transform-center-y="0.31656522" />
    <path
       sodipodi:type="star"
       style="opacity:0.47700004;fill:#ffffff;fill-opacity:0;stroke:#000000;stroke-width:0.33073458;stroke-opacity:1"
       id="path7637-0-8-8-6"
       sodipodi:sides="5"
       sodipodi:cx="415.18227"
       sodipodi:cy="357.89992"
       sodipodi:r1="4.3560319"
       sodipodi:r2="2.1780159"
       sodipodi:arg1="1.6475682"
       sodipodi:arg2="2.2758867"
       inkscape:flatsided="false"
       inkscape:rounded="0"
       inkscape:randomized="0"
       d="m 414.84819,362.24313 -1.07749,-2.68452 -2.82229,-0.63429 2.22018,-1.85432 -0.26889,-2.88017 2.44963,1.5385 2.65611,-1.14575 -0.70622,2.80516 1.91045,2.17206 -2.8861,0.19518 z"
       inkscape:transform-center-x="0.10324828"
       inkscape:transform-center-y="0.31654499" />
  </g>
</svg>
