<?xml version="1.0" encoding="UTF-8" standalone="no"?>
<!-- Created with Inkscape (http://www.inkscape.org/) -->

<svg
   xmlns:dc="http://purl.org/dc/elements/1.1/"
   xmlns:cc="http://creativecommons.org/ns#"
   xmlns:rdf="http://www.w3.org/1999/02/22-rdf-syntax-ns#"
   xmlns:svg="http://www.w3.org/2000/svg"
   xmlns="http://www.w3.org/2000/svg"
   xmlns:sodipodi="http://sodipodi.sourceforge.net/DTD/sodipodi-0.dtd"
   xmlns:inkscape="http://www.inkscape.org/namespaces/inkscape"
   width="210mm"
   height="297mm"
   viewBox="0 0 744.09448819 1052.3622047"
   id="svg2"
   version="1.1"
   inkscape:version="0.91 r13725"
   sodipodi:docname="creative2.svg">
  <defs
     id="defs4" />
  <sodipodi:namedview
     id="base"
     pagecolor="#ffffff"
     bordercolor="#666666"
     borderopacity="1.0"
     inkscape:pageopacity="0.0"
     inkscape:pageshadow="2"
     inkscape:zoom="1.979899"
     inkscape:cx="365.75149"
     inkscape:cy="612.72464"
     inkscape:document-units="px"
     inkscape:current-layer="layer1"
     showgrid="false"
     inkscape:window-width="1280"
     inkscape:window-height="961"
     inkscape:window-x="1912"
     inkscape:window-y="-8"
     inkscape:window-maximized="1" />
  <metadata
     id="metadata7">
    <rdf:RDF>
      <cc:Work
         rdf:about="">
        <dc:format>image/svg+xml</dc:format>
        <dc:type
           rdf:resource="http://purl.org/dc/dcmitype/StillImage" />
        <dc:title></dc:title>
      </cc:Work>
    </rdf:RDF>
  </metadata>
  <g
     inkscape:label="Layer 1"
     inkscape:groupmode="layer"
     id="layer1">
    <path
       style="fill:none;fill-rule:evenodd;stroke:#000000;stroke-width:1px;stroke-linecap:butt;stroke-linejoin:miter;stroke-opacity:1"
       d="m 396.98995,413.9458 -48.48732,18.18274 -69.70053,-27.27412 71.72083,-24.24366 74.75129,24.24366 z"
       id="path7445"
       inkscape:connector-curvature="0" />
    <path
       style="fill:none;fill-rule:evenodd;stroke:#000000;stroke-width:1px;stroke-linecap:butt;stroke-linejoin:miter;stroke-opacity:1"
       d="m 388.90873,423.03717 0,22.28427 c 0,0 0,0 -38.38579,16.16245 -43.43657,-17.1726 -43.43657,-17.1726 -43.43657,-17.1726 l -1.01015,-22.28427 42.42641,15.15228 z"
       id="path7447"
       inkscape:connector-curvature="0"
       sodipodi:nodetypes="ccccccc" />
    <path
       style="fill:none;fill-rule:evenodd;stroke:#000000;stroke-width:1px;stroke-linecap:butt;stroke-linejoin:miter;stroke-opacity:1"
       d="m 402.04071,411.92549 1.01016,27.27412"
       id="path7449"
       inkscape:connector-curvature="0" />
    <circle
       style="fill:#000000"
       id="path7453"
       cx="403.05087"
       cy="443.24023"
       r="5.0507627" />
    <path
       style="fill:none;fill-rule:evenodd;stroke:#000000;stroke-width:0.79061049px;stroke-linecap:butt;stroke-linejoin:miter;stroke-opacity:1"
       d="m 256.00936,386.6224 c 0,0 14.76946,-18.0036 26.13108,-29.69327 4.8262,-4.96553 11.3626,-10.45672 16.73276,-14.44562 7.38921,-5.48868 12.57032,-8.13304 8.04958,-2.65002 -5.5156,6.68965 -15.52846,20.85442 -25.43349,30.29571 -9.90505,9.44129 -20.90665,20.31414 -20.90665,20.31414 0,0 1.1066,3.10229 -2.04852,7.89476 0,0 -4.37464,5.94835 -10.0659,4.91459 -5.43332,-0.98691 -10.0089,2.5276 -10.0089,2.5276 1.64995,-7.90629 4.25948,-12.56283 8.20836,-16.1228 3.6759,-3.31388 9.34168,-3.0351 9.34168,-3.0351 z"
       id="path7459"
       inkscape:connector-curvature="0"
       sodipodi:nodetypes="csssscsscsc" />
    <path
       style="fill:none;fill-rule:evenodd;stroke:#000000;stroke-width:0.84525251px;stroke-linecap:butt;stroke-linejoin:miter;stroke-opacity:1"
       d="m 391.5127,344.62216 46.57978,48.55885 14.19427,7.71843 -7.52363,-14.28914 -45.36478,-49.61559 z"
       id="path7465"
       inkscape:connector-curvature="0"
       sodipodi:nodetypes="cccccc" />
  </g>
</svg>
