<?xml version="1.0" encoding="UTF-8" standalone="no"?>
<!-- Created with Inkscape (http://www.inkscape.org/) -->

<svg
   xmlns:dc="http://purl.org/dc/elements/1.1/"
   xmlns:cc="http://creativecommons.org/ns#"
   xmlns:rdf="http://www.w3.org/1999/02/22-rdf-syntax-ns#"
   xmlns:svg="http://www.w3.org/2000/svg"
   xmlns="http://www.w3.org/2000/svg"
   xmlns:sodipodi="http://sodipodi.sourceforge.net/DTD/sodipodi-0.dtd"
   xmlns:inkscape="http://www.inkscape.org/namespaces/inkscape"
   width="210mm"
   height="297mm"
   viewBox="0 0 744.09448819 1052.3622047"
   id="svg2"
   version="1.1"
   inkscape:version="0.91 r13725"
   sodipodi:docname="creative.svg">
  <defs
     id="defs4" />
  <sodipodi:namedview
     id="base"
     pagecolor="#ffffff"
     bordercolor="#666666"
     borderopacity="1.0"
     inkscape:pageopacity="0.0"
     inkscape:pageshadow="2"
     inkscape:zoom="0.98994949"
     inkscape:cx="356.21984"
     inkscape:cy="509.36116"
     inkscape:document-units="px"
     inkscape:current-layer="layer1"
     showgrid="false"
     inkscape:window-width="1280"
     inkscape:window-height="961"
     inkscape:window-x="1912"
     inkscape:window-y="-8"
     inkscape:window-maximized="1" />
  <metadata
     id="metadata7">
    <rdf:RDF>
      <cc:Work
         rdf:about="">
        <dc:format>image/svg+xml</dc:format>
        <dc:type
           rdf:resource="http://purl.org/dc/dcmitype/StillImage" />
        <dc:title></dc:title>
      </cc:Work>
    </rdf:RDF>
  </metadata>
  <g
     inkscape:label="Layer 1"
     inkscape:groupmode="layer"
     id="layer1">
    <path
       style="fill:#000000"
       id="path4156"
       d="m 184.56765,203.99721 c 0.0256,-2.78843 0.24252,-5.59928 -0.21534,-8.36148 -0.14218,-0.27083 -0.20586,-0.60068 -0.42654,-0.8125 -1.59751,-1.53333 -5.45871,-0.22726 -6.8115,0.17095 -8.50564,2.50376 -11.00648,4.22392 -20.20921,8.50519 -5.56029,3.03696 -11.31457,5.74298 -16.68087,9.1109 -5.23413,3.28497 -10.1045,7.11919 -15.06064,10.81023 -15.49193,11.53748 -28.485814,21.46093 -42.888502,34.29968 -14.748136,13.14668 -18.268501,17.49588 -31.126801,31.28147 -4.969314,6.93659 -10.898984,13.30026 -12.815545,21.93721 -0.539744,2.43234 -1.114528,5.39442 0.263923,7.46987 1.867632,2.81199 5.322389,4.29118 8.427271,5.61595 12.367833,5.27703 26.318203,6.15735 39.339952,8.05874 28.168442,2.48389 56.554602,2.89607 84.755572,0.61257 8.20739,-0.66457 16.38615,-1.6861 24.53805,-2.84775 16.87839,-2.40517 20.68392,-3.62526 36.31006,-7.29696 3.93913,-1.19137 7.87826,-2.38275 11.81738,-3.57412 0,0 -6.94895,5.35473 -6.94895,5.35473 l 0,0 c -3.77873,1.04674 -7.55745,2.09348 -11.33618,3.14022 -15.32432,3.27146 -18.69332,4.28237 -35.27207,6.41315 -8.04106,1.03347 -16.10268,1.95384 -24.1888,2.5381 -28.35126,2.04852 -56.84375,1.49837 -85.179153,-0.44793 -12.522993,-1.41345 -29.084028,-2.08187 -41.416626,-7.09589 -3.437639,-1.39763 -7.247276,-3.05127 -9.272675,-6.16069 -1.463815,-2.24726 -0.647366,-5.44798 0.01886,-8.04588 2.279434,-8.88846 8.806904,-15.74943 14.085187,-22.80083 4.73772,-4.96255 9.336558,-10.06152 14.213161,-14.88766 13.817326,-13.67436 23.312093,-21.96266 38.635592,-34.27755 18.013404,-14.47666 28.901204,-22.39773 49.013034,-34.86305 5.59135,-3.46552 11.52087,-6.35307 17.2813,-9.52961 4.62758,-2.21178 9.17314,-4.60404 13.88274,-6.63535 2.52532,-1.0892 5.14518,-1.96528 7.79175,-2.71314 2.38372,-0.67359 5.98755,-1.63172 7.98724,0.63169 0.27452,0.31073 0.37477,0.73973 0.56216,1.10959 0.47373,2.80893 0.24924,5.64544 0.3623,8.4822 0,0 -9.43613,4.80795 -9.43613,4.80795 z"
       inkscape:connector-curvature="0" />
    <path
       style="fill:#000000"
       id="path4158"
       d="m 144.71807,280.01291 c 0.0705,4.99465 -1.41163,9.39204 -3.28568,13.99076 -0.89313,2.19163 -1.78439,4.39058 -2.86418,6.49652 -1.17782,2.29712 -2.59867,4.46127 -3.89801,6.6919 -3.8771,5.80502 -8.33782,11.2005 -13.03601,16.35476 -2.27252,2.49312 -4.5282,4.68494 -7.27505,6.61532 -3.33859,1.78715 -6.67718,3.5743 -10.01577,5.36145 0,0 8.36815,-6.42117 8.36815,-6.42117 l 0,0 c -2.67323,1.60883 -5.34646,3.21766 -8.01968,4.82649 3.22557,-1.92487 5.33695,-3.83884 7.97288,-6.60692 4.84063,-5.08328 9.37993,-10.48157 13.34377,-16.27957 1.28307,-2.18219 2.69729,-4.29241 3.84923,-6.54657 1.05335,-2.06122 1.90773,-4.22034 2.75399,-6.37488 1.68072,-4.27905 3.04154,-8.65655 2.67022,-13.30014 0,0 9.43614,-4.80795 9.43614,-4.80795 z"
       inkscape:connector-curvature="0" />
    <path
       style="fill:#000000"
       id="path4162"
       d="m 135.65607,293.77156 c 4.88799,-5.37276 11.49046,-8.82997 18.05191,-11.79239 1.33334,-0.4634 4.14275,-2.37179 5.59813,-2.03993 1.14092,0.26015 1.73231,1.24053 2.44476,2.03987 1.73991,2.23627 3.06462,4.93973 5.31981,6.74077 1.72374,1.37662 2.69025,1.59683 4.75267,2.45711 6.87168,1.97389 14.15753,2.54602 21.2674,1.75764 1.97809,-0.21935 3.93388,-0.60696 5.90083,-0.91043 6.67132,-1.41624 13.32553,-3.16187 19.56978,-5.95213 1.05487,-0.47137 2.93618,-1.46057 4.08312,-2.05564 -3.16163,2.22184 -6.15957,4.69707 -9.48488,6.66551 -1.09831,0.65015 -2.46171,0.68423 -3.66238,1.11711 -5.11202,1.84307 -6.58635,2.66539 -11.59196,5.23465 -0.80468,0.41302 3.10682,-1.79038 2.44788,-1.17079 -1.43482,1.34916 -3.21788,2.2718 -4.82682,3.4077 -2.89574,2.26145 -5.81915,4.56044 -8.22913,7.35731 -0.25037,0.29056 -1.27446,1.45837 -1.30542,2.12668 -0.004,0.0931 0.17296,0.0696 0.25945,0.10437 1.83493,-0.46365 1.939,-0.45895 4.32036,-1.34007 4.16786,-1.54215 10.49284,-4.15251 14.36063,-5.76089 6.44588,-2.68046 14.5866,-6.15311 20.98117,-8.86917 3.61016,-1.49286 7.22465,-2.9753 10.83048,-4.47859 4.23657,-1.76624 13.33566,-5.5903 17.83428,-7.58222 1.99547,-0.88356 3.98977,-1.77227 5.94966,-2.73216 1.09489,-0.53625 4.14731,-2.53289 3.2096,-1.75375 -2.83787,2.35795 -5.96351,4.3463 -8.94526,6.51945 -5.23759,2.42167 -3.07501,1.32518 -9.36975,4.8042 -0.57474,0.31766 2.26223,-1.32005 1.74325,-0.91769 -2.00572,1.55505 -4.21712,2.83219 -6.22114,4.38943 -4.45312,3.46032 -5.70297,4.97164 -9.51216,8.85043 -2.53981,3.24787 -7.69783,8.39956 -7.75154,12.92965 -0.004,0.32892 0.10695,0.64913 0.16043,0.97369 0.42035,0.44258 0.57175,0.79053 1.2991,0.73104 0.42199,-0.0345 1.58024,-0.58262 1.21619,-0.36645 -2.17683,1.29259 -4.30839,2.72934 -6.68135,3.61164 -1.21045,0.45007 2.14567,-1.44811 3.12538,-2.28948 1.27798,-1.09751 2.42146,-2.34256 3.63219,-3.51384 3.864,-4.14244 7.28225,-8.67084 10.53575,-13.29971 0.83689,-1.19067 1.6027,-2.4306 2.44972,-3.61409 0.39199,-0.54771 0.66093,-1.27735 1.2647,-1.57587 3.16604,-1.56543 6.56335,-2.61149 9.84503,-3.91724 -0.01,1.09934 0.0306,2.20023 -0.0285,3.29802 -0.16494,3.06423 -0.57579,6.11052 -0.81401,9.16992 -0.32538,4.17871 -0.44924,8.3014 -0.35361,12.48855 0.13724,1.47593 0.17571,3.23975 0.71276,4.6765 0.14079,0.37666 0.29366,0.83233 0.65185,1.01506 0.27618,0.14089 1.17988,-0.36186 0.90333,-0.22169 -2.23947,1.13507 -4.30168,3.1329 -6.811,3.216 -1.44286,0.0478 2.02247,-2.06061 3.0337,-3.09092 6.93883,-8.42973 13.14048,-17.562 18.04014,-27.33792 4.3597,-8.69857 5.70781,-12.90098 9.22339,-22.05739 8.19102,-23.11292 12.46292,-47.29963 17.46054,-71.22959 1.10633,-5.06724 1.39371,-6.74581 2.6125,-11.28177 0.1673,-0.62264 -0.047,-1.64991 0.56604,-1.8495 2.88537,-0.93939 7.07349,-3.60217 9.01433,-1.26959 2.05527,2.47011 -1.41579,6.27146 -2.27648,9.3674 -1.62393,5.84136 -3.45016,11.62459 -5.17524,17.43689 -6.86981,22.8662 -14.17213,45.60972 -20.462,68.64727 -2.67656,9.80328 -6.04472,22.91007 -7.85437,33.1944 -0.61033,3.46857 -0.88885,6.98741 -1.33327,10.48112 0.0399,2.53138 -0.94487,7.62173 1.80015,9.87475 1.6152,1.3257 5.09264,-0.2928 6.27624,-0.787 3.15259,-1.31632 5.81641,-2.97465 8.7696,-4.6722 -1.52383,0.81614 -2.85567,2.23849 -4.57151,2.44842 -1.29215,0.15809 2.1292,-1.49894 3.17268,-2.27728 2.93036,-2.18577 4.68943,-3.99257 7.04362,-6.76143 0,0 9.36924,-3.98543 9.36924,-3.98543 l 0,0 c -1.59576,1.98727 -2.45954,3.23137 -4.36432,4.93788 -0.84547,0.75747 -1.77446,1.41662 -2.6802,2.10088 -6.09755,4.60654 -5.81501,3.90356 -15.66722,9.75928 -3.354,1.86731 -9.24246,5.65237 -13.2404,5.4512 -6.00862,-0.30233 -4.20629,-8.90031 -3.96728,-12.13587 0.64545,-3.61479 1.15354,-7.25682 1.93634,-10.84437 2.30376,-10.55811 6.05848,-23.64363 8.99615,-33.78943 6.58569,-22.74502 13.78134,-45.31762 19.68247,-68.25787 1.32432,-5.60093 2.78237,-11.17192 3.97295,-16.80279 0.61703,-2.91822 -0.20864,-6.34937 1.44691,-8.83047 2.26117,-3.38871 6.1522,-5.37684 9.54143,-7.63723 0.60036,-0.4004 -0.72186,1.25618 -0.9826,1.92907 -1.51863,3.91907 -2.27573,7.42387 -3.36789,11.57049 -5.60437,23.92222 -9.85888,48.21256 -17.7926,71.52938 -2.95855,7.92311 -5.16535,14.40562 -8.82169,22.01219 -1.42038,2.95494 -3.05735,5.80232 -4.68634,8.64759 -3.70575,6.47264 -7.85925,12.65441 -12.43222,18.54493 -4.97162,5.7288 -3.57457,4.8044 -14.08623,9.80142 -0.45118,0.21448 -1.01341,-0.24622 -1.37916,-0.5865 -1.38129,-1.2851 -1.11134,-4.74664 -1.30422,-6.32271 0.008,-8.09811 0.91447,-16.13657 1.10853,-24.22652 2.94508,-1.81015 5.78827,-3.79762 8.83523,-5.43046 0.67459,-0.3615 -1.18143,0.98886 -1.6606,1.58565 -0.94112,1.17213 -1.70878,2.47368 -2.58143,3.69764 -3.2872,4.61059 -6.66732,9.16514 -10.4161,13.41561 -1.80894,1.89482 -3.98525,4.48645 -6.31738,5.90781 -3.69479,2.25185 -7.43781,4.44424 -11.32834,6.33792 -0.80194,0.39034 -2.0603,-0.13867 -2.65428,-0.67278 -0.31025,-0.27897 -0.49583,-0.67118 -0.74374,-1.00677 -0.079,-0.42615 -0.22893,-0.84512 -0.23714,-1.27847 -0.0936,-4.94382 5.35977,-10.31549 8.1366,-13.83485 3.83624,-3.91869 5.24082,-5.5807 9.67668,-9.09885 6.89874,-5.47148 12.55029,-8.27926 20.80248,-12.99909 2.00328,-1.14578 4.01827,-2.27526 6.08324,-3.30572 1.37723,-0.68727 2.82261,-1.2285 4.23392,-1.84275 -2.47577,2.07579 -4.8323,4.3027 -7.4273,6.22735 -0.85754,0.63602 -1.90321,0.9696 -2.87437,1.41314 -1.88101,0.85909 -3.77874,1.68147 -5.68035,2.49394 -9.38396,4.0093 -18.86395,7.79146 -28.26934,11.74946 -7.11055,3.03414 -14.20734,6.1005 -21.32105,9.12723 -2.83892,1.2079 -5.67944,2.41235 -8.53191,3.58789 -1.48331,0.61129 -7.5779,3.32892 -10.17751,3.61915 -0.60378,0.0674 -1.18936,-0.24856 -1.78404,-0.37284 -0.23603,-0.34496 -0.62403,-0.62543 -0.70808,-1.03487 -0.29106,-1.41781 2.50846,-4.00281 3.2331,-4.70611 2.55224,-2.47711 3.84933,-3.39138 6.75728,-5.72946 1.64196,-1.1715 3.21409,-2.44762 4.92587,-3.51451 6.73789,-4.19949 13.15303,-8.17766 20.32124,-11.38919 1.88439,-0.84425 3.81138,-1.59362 5.75027,-2.30383 1.34473,-0.49257 4.83608,-2.52716 4.09423,-1.30218 -1.62219,2.67862 -4.70633,4.13236 -7.05949,6.19854 -7.38785,3.5186 -15.25655,5.79301 -23.28896,7.32879 -2.01908,0.30408 -4.02664,0.69822 -6.05724,0.91223 -7.2984,0.76919 -14.80687,0.18007 -21.83564,-1.92606 -2.242,-0.98064 -3.19316,-1.20242 -5.06771,-2.7334 -2.23728,-1.82725 -3.56586,-4.517 -5.40252,-6.69202 -0.3573,-0.32427 -0.65655,-0.72725 -1.0719,-0.9728 -1.43933,-0.85091 -4.82525,1.5575 -6.17457,1.98724 -4.05982,2.00193 -3.32971,1.6966 5.12154,-3.16437 0.59474,-0.34208 -1.19574,0.67798 -1.75519,1.07516 -1.23223,0.87485 -1.55398,1.3612 -2.62819,2.37804 -0.31077,0.29417 -0.63902,0.56931 -0.95853,0.85397 0,0 -9.71315,4.18576 -9.71315,4.18576 z"
       inkscape:connector-curvature="0" />
    <path
       style="fill:#000000"
       id="path4166"
       d="m 302.67603,297.99826 c 3.83012,-1.77266 7.87188,-3.10215 11.98533,-4.0347 0.58638,0.0208 2.25046,-0.0989 2.76029,0.54894 1.13451,1.44155 0.59771,3.4087 0.14958,4.92744 -1.01976,3.45603 -2.60949,6.27239 -4.20463,9.5072 -2.43999,4.79588 -5.364,9.31669 -8.0444,13.97515 -0.75488,1.31197 -2.31624,3.97569 -2.77537,5.62206 -0.14254,0.51112 -0.0751,1.0586 -0.1126,1.58789 0.26778,0.22124 0.46742,0.57532 0.80332,0.66372 1.83741,0.48359 4.70533,-0.76815 6.01668,-1.23357 1.98383,-0.70408 3.96078,-1.43792 5.88316,-2.29568 6.34359,-2.8305 9.33221,-4.70691 15.47213,-8.15749 0.005,-0.23699 -0.16544,-0.55734 0.0151,-0.71098 2.1866,-1.86114 4.65254,-3.37057 6.89187,-5.1679 5.36673,-4.30748 10.02829,-9.27758 14.7878,-14.21526 3.35273,-1.6767 6.40446,-4.192 10.05818,-5.03011 0.86338,-0.19805 0.61263,1.67792 0.72522,2.55655 0.13576,1.05956 0.0385,2.13672 0.013,3.20464 -0.0944,3.94463 -0.4282,7.86746 -0.49281,11.81513 0.0924,3.29314 0.14086,6.60377 0.625,9.86985 0.10502,0.70849 0.20854,1.42182 0.40904,2.10942 0.12385,0.42471 0.15104,1.02941 0.55731,1.20452 0.29189,0.12581 0.45013,-0.44887 0.6752,-0.6733 -2.47653,1.25481 -4.7908,2.90155 -7.42958,3.76444 -0.99579,0.32562 1.5676,-1.39054 2.33875,-2.09973 3.16937,-2.91473 6.30875,-5.79106 9.69515,-8.45553 4.27009,-3.07688 8.94329,-5.67985 13.61428,-8.04223 0.43907,-0.22206 0.97801,-0.1813 1.4688,-0.14641 1.28634,0.0915 3.73186,1.04936 4.68027,1.37177 11.89206,3.48276 24.33075,4.22453 36.63363,4.90877 9.53847,0.27174 19.11814,0.86354 28.65697,0.21047 5.43781,-0.37229 7.58252,-0.81871 12.84413,-1.64317 3.87189,-0.87963 5.35962,-1.08974 8.94557,-2.33717 0.98135,-0.34138 3.75076,-1.75183 2.8881,-1.17269 -2.31327,1.29758 -4.62654,2.59516 -6.93981,3.89273 0.30381,-0.34195 0.96579,-0.57167 0.91142,-1.02584 -0.0632,-0.52797 -0.77646,-0.7267 -1.16469,-1.09004 -1.25337,-0.53496 -2.46199,-1.19009 -3.76009,-1.60487 -5.85545,-1.87097 -10.62927,-2.5446 -16.94446,-2.96215 -8.3936,-0.55497 -14.56319,-0.41725 -22.8315,1.16404 -3.28761,0.62875 -6.46098,1.75229 -9.69147,2.62843 0.75889,-0.14522 2.06275,-1.17812 2.27668,-0.43566 0.46396,1.61024 -1.7846,3.45968 -0.98157,4.93049 3.25036,5.95328 18.21271,12.99162 22.23535,14.61724 17.40547,7.03382 32.46307,9.79671 50.78279,14.13293 0,0 -5.06551,3.50794 -5.06551,3.50794 l 0,0 c -9.25496,-2.07286 -18.57117,-3.88904 -27.76488,-6.21859 -14.28061,-3.61848 -27.77124,-6.8733 -40.44475,-14.48515 -1.82586,-1.09663 -13.44513,-7.36409 -7.66617,-12.97297 3.90355,-3.78867 9.23943,-5.74456 13.85914,-8.61684 3.19615,-0.79809 6.34332,-1.82733 9.58846,-2.39426 8.44634,-1.47558 14.48032,-1.52631 23.04811,-1.07583 7.58281,0.3987 15.28289,1.06593 22.20568,4.41884 0.63933,0.76058 1.64536,1.32628 1.91799,2.28174 0.15616,0.54723 -0.36739,1.17241 -0.84332,1.48439 -8.80441,5.77137 -12.80177,7.46878 -22.35179,9.17073 -5.06489,0.70811 -7.5775,1.15283 -12.7986,1.47127 -9.53607,0.58161 -19.10188,-0.0272 -28.63364,-0.33002 -12.53464,-0.67546 -25.1484,-1.48295 -37.34186,-4.68766 -1.3078,-0.31922 -3.13437,-0.96734 -4.62093,-0.81872 -0.44298,0.0443 -1.65772,0.60843 -1.28449,0.36577 2.47656,-1.6101 5.09746,-2.98653 7.6368,-4.49566 0.53176,-0.31603 -1.08845,0.58963 -1.61381,0.9162 -0.65061,0.40441 -1.27456,0.85022 -1.91184,1.27534 -2.54568,1.91403 -4.9937,3.8977 -7.34002,6.05596 -0.82748,0.76115 -1.63132,1.54764 -2.44084,2.32786 -0.72489,0.69868 -1.32268,1.55323 -2.16231,2.10878 -3.45877,2.28851 -7.11842,4.2579 -10.67763,6.38685 -0.44678,-0.16113 -1.00861,-0.14349 -1.34034,-0.48339 -0.56131,-0.57513 -0.86458,-3.23293 -0.91937,-3.68921 -0.40072,-3.3372 -0.40422,-6.7068 -0.51383,-10.06048 0.081,-4.88606 0.51179,-9.77655 0.30267,-14.66284 -0.0185,-0.43131 -0.44045,-1.01883 -0.10521,-1.29084 2.43907,-1.97907 5.29557,-3.37938 7.94336,-5.06908 -3.32513,3.20182 -6.46449,6.60801 -9.8703,9.72471 -8.62607,7.89384 -18.25597,14.35588 -28.46463,20.08544 -6.17452,3.44236 -9.49361,5.48331 -15.90004,8.33005 -2.02004,0.89762 -4.08125,1.71208 -6.18215,2.39947 -2.10902,0.69003 -4.82601,1.8856 -7.06452,0.60785 -0.53453,-0.30511 -0.77706,-0.9547 -1.16559,-1.43204 0.0299,-0.65767 -0.0781,-1.33642 0.0898,-1.97299 0.43844,-1.66223 2.25926,-4.61532 3.02428,-5.8934 2.77099,-4.62937 5.75587,-9.13649 8.20989,-13.95106 1.94839,-4.03563 2.6385,-5.03602 3.89891,-9.0759 0.19605,-0.62837 0.92518,-2.90261 0.36795,-3.49677 -0.38292,-0.4083 -2.03668,-0.16589 -2.32473,-0.14727 -4.13065,1.01144 -8.19299,2.38037 -11.97769,4.33823 0,0 8.27072,-6.61579 8.27072,-6.61579 z"
       inkscape:connector-curvature="0" />
    <path
       style="fill:#000000"
       id="path4168"
       d="m 322.03521,240.26246 c 0.37244,3.10985 0.79895,6.24651 0.79843,9.38581 -2.4e-4,1.44208 -0.13671,2.88093 -0.20506,4.32139 0,0 -8.95598,4.51109 -8.95598,4.51109 l 0,0 c 0.0634,-1.39722 0.2035,-2.79308 0.19013,-4.19168 -0.029,-3.03364 -0.51247,-6.06676 -1.09958,-9.03423 0,0 9.27206,-4.99238 9.27206,-4.99238 z"
       inkscape:connector-curvature="0" />
    <path
       style="fill:#000000"
       id="path4170"
       d="m 157.12769,244.8382 c 8.12769,1.7306 7.68401,1.77976 18.69879,2.95653 23.41366,2.50142 46.39937,4.00948 70.00129,5.23194 54.1462,2.8045 69.26495,2.7998 124.77372,4.20193 21.50214,0.31448 43.00427,0.62896 64.5064,0.94344 0,0 -0.26757,0.19378 -0.26757,0.19378 l 0,0 c -21.47082,-0.33721 -42.94164,-0.67443 -64.41246,-1.01164 -42.48686,-0.76869 -84.9768,-1.37696 -127.46128,-2.26801 -22.56387,-0.47324 -50.71123,-1.11288 -74.05775,-2.37538 -11.99209,-0.64848 -11.45387,-0.70397 -20.44527,-1.97017 0,0 8.66413,-5.90242 8.66413,-5.90242 z"
       inkscape:connector-curvature="0" />
  </g>
</svg>
